<?xml version="1.0" standalone="no"?>
<!DOCTYPE svg PUBLIC "-//W3C//DTD SVG 20010904//EN"
 "http://www.w3.org/TR/2001/REC-SVG-20010904/DTD/svg10.dtd">
<svg version="1.0" xmlns="http://www.w3.org/2000/svg"
 width="300.000000pt" height="450.000000pt" viewBox="0 0 300.000000 450.000000"
 preserveAspectRatio="xMidYMid meet">
<metadata>
Created by potrace 1.10, written by Peter Selinger 2001-2011
</metadata>
<g transform="translate(0.000000,450.000000) scale(0.100000,-0.100000)"
fill="#000000" stroke="none">
<path d="M1416 4293 c-3 -3 -6 -17 -6 -29 0 -16 -7 -24 -22 -26 -14 -2 -29
-15 -38 -35 -10 -22 -22 -33 -37 -33 -14 0 -23 -6 -23 -15 0 -9 9 -15 25 -15
18 0 25 -5 25 -20 0 -15 -7 -20 -25 -20 -16 0 -25 -6 -25 -15 0 -9 9 -15 25
-15 20 0 25 -5 25 -25 0 -20 -5 -25 -26 -25 -16 0 -24 -5 -21 -12 2 -7 13 -12
23 -10 14 2 23 -7 31 -28 6 -17 24 -36 40 -43 21 -9 27 -18 25 -34 -2 -16 2
-23 12 -23 10 0 16 9 16 25 0 20 5 25 25 25 20 0 25 -5 25 -25 0 -14 5 -25 10
-25 6 0 10 11 10 25 0 20 5 25 25 25 20 0 25 -5 25 -25 0 -16 6 -25 15 -25 9
0 15 9 15 23 1 14 13 29 33 42 18 11 33 31 35 43 3 17 9 22 24 20 12 -2 23 3
25 10 3 7 -5 12 -21 12 -21 0 -26 5 -26 25 0 20 5 25 25 25 16 0 25 6 25 15 0
9 -9 15 -25 15 -18 0 -25 5 -25 20 0 15 7 20 25 20 16 0 25 6 25 15 0 9 -9 15
-22 15 -16 0 -28 11 -38 33 -9 19 -24 33 -37 35 -15 2 -23 11 -25 28 -4 32
-22 32 -26 -1 -3 -19 -9 -25 -28 -25 -20 0 -24 5 -24 30 0 17 -4 30 -10 30 -5
0 -10 -13 -10 -30 0 -25 -4 -30 -25 -30 -20 0 -25 5 -25 24 0 26 -12 40 -24
29z m195 -83 c17 -10 19 -22 19 -129 0 -99 -3 -120 -16 -125 -30 -11 -219 -7
-232 6 -8 8 -12 50 -12 123 0 73 4 115 12 123 15 15 201 16 229 2z"/>
<path d="M1494 4151 c-53 -24 -74 -55 -74 -108 l0 -43 50 0 c40 0 56 5 75 24
24 24 49 94 43 124 -5 24 -46 25 -94 3z m66 -31 c0 -29 -27 -78 -49 -90 -37
-19 -45 -10 -16 20 36 37 27 50 -15 20 -36 -25 -41 -24 -29 7 8 21 70 62 97
63 6 0 12 -9 12 -20z"/>
<path d="M1063 3740 c-51 -20 -33 -82 28 -95 37 -8 41 -45 5 -45 -13 0 -26 7
-30 15 -7 19 -36 20 -36 2 0 -43 83 -63 114 -28 27 30 12 59 -42 82 -41 18
-44 21 -30 35 14 14 18 14 46 0 35 -18 51 -7 24 16 -24 22 -53 28 -79 18z"/>
<path d="M2102 3733 c2 -10 10 -18 18 -18 8 0 16 8 18 18 2 12 -3 17 -18 17
-15 0 -20 -5 -18 -17z"/>
<path d="M2690 3659 c0 -78 2 -89 18 -89 15 0 17 10 15 87 -1 70 -5 87 -17 89
-14 2 -16 -12 -16 -87z"/>
<path d="M274 3723 c3 -10 10 -40 16 -68 17 -78 20 -85 40 -85 19 0 25 10 36
73 10 56 19 52 33 -14 10 -52 15 -60 33 -57 17 2 24 17 39 78 23 94 23 90 0
90 -16 0 -21 -10 -26 -55 -4 -30 -10 -57 -14 -60 -4 -2 -13 23 -20 56 -9 47
-16 59 -31 59 -15 0 -21 -12 -31 -61 -13 -67 -22 -63 -33 14 -6 38 -11 47 -27
47 -15 0 -19 -5 -15 -17z"/>
<path d="M2535 3663 c-17 -42 -31 -80 -33 -85 -2 -4 5 -8 16 -8 12 0 23 9 27
20 5 15 15 20 40 20 25 0 35 -5 40 -20 3 -11 15 -20 26 -20 18 0 18 1 0 48
-10 26 -24 64 -30 85 -10 28 -18 37 -34 37 -19 0 -28 -14 -52 -77z m64 7 c9
-28 8 -30 -14 -30 -22 0 -23 2 -14 30 6 17 12 30 14 30 2 0 8 -13 14 -30z"/>
<path d="M770 3715 c0 -8 -7 -15 -15 -15 -8 0 -15 -7 -15 -15 0 -8 7 -15 14
-15 11 0 16 -14 18 -47 3 -44 5 -48 31 -51 19 -2 27 1 27 12 0 9 -7 16 -15 16
-10 0 -15 11 -15 35 0 24 5 35 15 35 8 0 15 7 15 15 0 8 -7 15 -15 15 -8 0
-15 7 -15 15 0 8 -7 15 -15 15 -8 0 -15 -7 -15 -15z"/>
<path d="M2006 3715 c4 -9 0 -15 -10 -15 -9 0 -16 -7 -16 -15 0 -8 7 -15 14
-15 11 0 16 -14 18 -47 3 -43 6 -48 29 -51 17 -2 29 3 32 12 5 11 0 16 -13 16
-16 0 -20 7 -20 35 0 28 4 35 20 35 11 0 20 5 20 11 0 6 -9 13 -20 16 -11 3
-20 12 -20 19 0 8 -9 14 -20 14 -13 0 -18 -5 -14 -15z"/>
<path d="M512 3688 c-7 -7 -12 -18 -12 -25 0 -10 5 -10 24 -1 14 6 33 7 43 3
15 -6 11 -10 -21 -20 -81 -24 -71 -75 15 -73 l49 1 0 41 c0 53 -23 86 -59 86
-15 0 -32 -5 -39 -12z m68 -67 c0 -16 -30 -33 -47 -26 -17 6 -17 7 1 21 22 16
46 19 46 5z"/>
<path d="M640 3685 c-19 -23 -8 -48 28 -57 32 -9 41 -21 22 -33 -5 -3 -18 0
-29 7 -25 15 -39 4 -21 -17 16 -19 64 -20 80 0 18 22 8 47 -25 58 -37 12 -39
13 -30 26 4 8 12 8 26 0 29 -15 45 -6 25 14 -21 21 -59 22 -76 2z"/>
<path d="M869 3690 c-22 -13 -31 -53 -19 -84 11 -30 51 -43 86 -27 37 16 29
30 -17 28 -26 -1 -44 3 -46 11 -3 8 9 12 41 12 39 0 46 3 46 19 0 41 -51 64
-91 41z m61 -31 c0 -5 -15 -9 -32 -9 -31 1 -32 2 -15 15 19 14 47 10 47 -6z"/>
<path d="M1197 3682 c-21 -23 -22 -76 -1 -96 18 -19 65 -21 82 -4 22 22 13 28
-28 22 -33 -5 -40 -4 -40 10 0 12 10 16 40 16 36 0 40 3 40 25 0 43 -63 61
-93 27z m63 -23 c0 -5 -11 -9 -25 -9 -26 0 -34 15 -12 23 16 5 37 -3 37 -14z"/>
<path d="M1325 3677 c-40 -57 5 -119 68 -92 21 9 22 -8 1 -29 -12 -12 -20 -13
-35 -5 -11 5 -27 9 -36 7 -28 -5 13 -38 48 -38 50 0 69 30 69 108 l0 69 -50 1
c-40 1 -52 -3 -65 -21z m74 -21 c6 -7 9 -20 5 -29 -15 -41 -73 -20 -59 22 7
24 37 28 54 7z"/>
<path d="M1470 3635 c0 -51 3 -65 15 -65 11 0 15 12 15 46 0 37 4 47 20 51 11
3 20 12 20 19 0 17 -27 18 -33 2 -4 -10 -6 -10 -6 0 -1 6 -8 12 -16 12 -12 0
-15 -14 -15 -65z"/>
<path d="M1570 3680 c-41 -41 -11 -110 48 -110 27 0 52 15 52 32 0 5 -17 5
-39 2 -30 -5 -39 -3 -44 10 -5 13 1 16 38 16 37 0 45 3 45 18 0 25 -31 52 -58
52 -12 0 -31 -9 -42 -20z m70 -21 c0 -5 -15 -9 -32 -9 -31 1 -32 2 -15 15 19
14 47 10 47 -6z"/>
<path d="M1705 3677 c-34 -49 -2 -105 55 -94 22 5 30 3 30 -8 0 -22 -30 -34
-57 -22 -28 12 -41 3 -23 -18 7 -8 27 -15 46 -15 47 0 64 29 64 111 l0 66 -50
1 c-40 1 -52 -3 -65 -21z m74 -21 c23 -28 -17 -68 -45 -45 -17 14 -18 31 -2
47 16 16 33 15 47 -2z"/>
<path d="M1868 3689 c-31 -18 -20 -30 22 -23 52 8 54 -11 3 -23 -33 -8 -38
-12 -38 -38 0 -29 1 -30 53 -32 l52 -1 0 47 c0 69 -41 100 -92 70z m62 -68 c0
-5 -7 -14 -15 -21 -12 -10 -19 -10 -28 -1 -9 9 -9 14 3 21 19 12 40 13 40 1z"/>
<path d="M2100 3635 c0 -58 2 -65 20 -65 18 0 20 7 20 65 0 58 -2 65 -20 65
-18 0 -20 -7 -20 -65z"/>
<path d="M2180 3680 c-40 -40 -11 -110 45 -110 32 0 65 33 65 65 0 32 -33 65
-65 65 -14 0 -34 -9 -45 -20z m70 -25 c18 -21 3 -55 -25 -55 -15 0 -26 7 -30
20 -7 23 10 50 30 50 7 0 18 -7 25 -15z"/>
<path d="M2315 3634 c0 -54 2 -64 17 -64 13 0 18 10 20 48 3 39 6 47 23 47 17
0 20 -8 23 -47 2 -34 7 -48 18 -48 18 0 20 103 1 118 -6 6 -32 10 -57 10 l-45
0 0 -64z"/>
<path d="M1590 3305 c-10 -12 -24 -14 -61 -9 l-48 6 -18 -38 c-12 -25 -32 -46
-56 -59 -38 -20 -39 -21 -32 -65 4 -25 10 -69 13 -99 7 -52 9 -55 42 -64 19
-5 49 -22 65 -38 37 -35 74 -37 122 -8 26 16 43 20 73 15 50 -8 76 14 94 79 8
28 20 65 27 82 12 30 11 34 -14 61 -14 15 -32 43 -38 62 -17 50 -27 60 -64 60
-18 0 -38 7 -45 15 -16 19 -44 19 -60 0z m55 -25 c12 -13 28 -19 48 -17 27 2
31 -2 39 -33 5 -19 21 -47 35 -62 l26 -27 -23 -73 c-12 -40 -24 -79 -26 -85
-2 -9 -24 -13 -61 -13 -42 0 -65 -6 -83 -20 -35 -28 -62 -25 -95 10 -16 17
-43 34 -60 39 -26 7 -30 12 -28 38 2 17 -4 50 -12 73 -20 57 -20 57 24 80 28
14 43 30 52 55 14 37 16 38 80 19 9 -2 24 5 34 16 23 25 27 25 50 0z"/>
<path d="M1632 3209 c10 -29 8 -33 -38 -80 -26 -27 -46 -51 -43 -53 3 -3 28
12 58 32 l52 37 31 -18 c17 -10 33 -16 35 -14 7 7 -41 81 -67 104 -34 30 -41
29 -28 -8z m28 -14 c0 -8 4 -15 8 -15 5 0 9 -7 9 -15 0 -8 -7 -15 -16 -15 -11
0 -16 9 -16 30 0 17 3 30 8 30 4 0 7 -7 7 -15z"/>
<path d="M1486 3158 c-8 -12 -13 -25 -10 -30 3 -5 2 -8 -3 -7 -18 3 -33 -2
-33 -11 0 -5 9 -10 20 -10 12 0 20 -7 20 -17 0 -24 12 -9 27 35 22 63 10 85
-21 40z"/>
<path d="M806 3294 c-9 -8 -16 -26 -16 -40 0 -13 -15 -41 -34 -61 -41 -46 -51
-67 -60 -117 -18 -96 -60 -109 -155 -45 -66 44 -91 45 -91 4 0 -56 52 -115
115 -131 l29 -7 -42 -18 c-23 -10 -42 -22 -42 -26 1 -19 19 -34 51 -43 70 -20
169 31 209 109 l12 23 15 -28 c23 -46 44 -65 98 -90 57 -27 112 -31 141 -10
16 12 17 18 7 34 -10 18 -8 21 18 32 39 17 69 56 69 91 0 23 -4 29 -22 29 -12
0 -30 -8 -41 -17 -29 -27 -131 -25 -151 2 -25 35 -68 221 -61 264 5 33 3 41
-14 50 -15 9 -23 7 -35 -5z m22 -50 c-9 -20 -7 -38 10 -92 11 -37 24 -83 28
-102 13 -69 80 -165 139 -198 17 -10 18 -13 5 -22 -17 -11 -73 -3 -111 16 -15
7 -43 33 -63 56 -37 42 -37 42 -33 123 3 44 3 64 0 45 -4 -39 -56 -155 -81
-184 -27 -30 -88 -56 -131 -56 -54 0 -58 14 -10 35 76 35 124 111 144 227 3
23 21 55 45 84 22 25 40 55 40 68 0 25 9 38 21 30 5 -2 3 -16 -3 -30z m-288
-239 c34 -23 64 -35 86 -35 38 0 41 -5 17 -32 -31 -35 -98 -16 -147 42 -26 31
-34 60 -17 60 5 0 32 -16 61 -35z m560 -61 c-15 -28 -58 -54 -88 -54 -10 0
-29 11 -42 25 l-23 25 44 0 c24 0 60 8 79 19 42 22 48 19 30 -15z"/>
<path d="M2302 3178 c-17 -17 -15 -35 7 -51 19 -13 19 -14 3 -40 l-18 -26 -29
19 c-38 25 -75 26 -75 2 0 -10 5 -23 11 -29 8 -8 -12 -49 -75 -150 -81 -132
-99 -174 -76 -188 6 -4 5 -15 -2 -30 -8 -18 -8 -28 0 -38 6 -7 7 -18 3 -25 -5
-9 -29 -7 -100 8 -51 12 -102 18 -112 15 -21 -7 -46 -79 -55 -161 -6 -47 -4
-53 17 -67 13 -8 134 -38 268 -66 236 -51 244 -52 261 -34 19 19 58 167 52
195 -4 22 -34 32 -184 64 -71 15 -128 32 -128 36 0 5 11 6 24 2 18 -4 27 0 36
16 7 13 17 19 26 16 30 -11 54 16 140 154 68 110 90 139 106 137 11 -1 25 6
32 16 11 19 8 24 -48 60 -16 11 -17 16 -6 33 9 15 23 21 49 20 31 -1 36 2 39
24 2 21 -7 31 -61 63 -68 40 -86 44 -105 25z m89 -45 c33 -20 56 -40 51 -45
-11 -11 -121 52 -122 70 0 18 6 16 71 -25z m-17 -41 c3 -5 -3 -20 -12 -35 -13
-18 -22 -23 -32 -17 -12 7 -12 12 0 34 13 26 34 34 44 18z m-56 -69 c53 -31
92 -58 86 -60 -13 -4 -194 98 -194 110 0 13 10 8 108 -50z m40 -69 c1 0 -17
-33 -41 -72 l-44 -71 -61 36 c-58 34 -74 54 -53 67 5 3 14 -1 21 -9 14 -17 40
-20 40 -5 0 5 -9 14 -20 20 -11 6 -20 17 -20 25 0 19 10 19 36 0 20 -13 34
-11 34 5 0 4 -11 12 -25 18 -24 11 -25 13 -10 36 l16 24 62 -36 c34 -20 63
-37 65 -38z m-162 -126 c23 -15 47 -28 53 -28 17 0 14 -9 -26 -72 -21 -32 -45
-58 -53 -58 -23 0 -110 58 -110 73 0 22 11 27 31 14 24 -15 39 1 16 17 -9 7
-17 18 -17 25 0 14 23 14 37 0 6 -6 17 -8 23 -4 9 6 6 13 -10 25 -15 12 -21
23 -17 34 7 18 7 19 73 -26z m-90 -152 c15 -11 16 -17 7 -27 -16 -16 -43 -4
-43 21 0 24 9 25 36 6z m8 -107 c127 -28 235 -55 240 -59 8 -8 3 -35 -25 -144
-10 -37 -11 -38 -47 -33 -76 11 -467 99 -475 107 -8 7 18 151 30 173 8 13 45
7 277 -44z"/>
<path d="M2282 2899 c-32 -56 -23 -59 11 -4 14 25 23 45 19 45 -4 0 -17 -19
-30 -41z"/>
<path d="M1868 2565 c-13 -21 -20 -85 -9 -85 6 0 11 7 11 15 0 8 6 15 14 15 9
0 12 -7 9 -19 -4 -16 3 -21 47 -30 64 -14 63 -14 57 3 -8 20 14 35 37 26 19
-6 18 -7 -3 -13 -32 -8 -21 -31 16 -35 24 -2 32 2 38 20 7 22 7 22 14 -7 6
-25 11 -30 34 -28 15 1 27 -2 27 -8 0 -14 38 -11 43 4 3 7 6 5 6 -5 1 -16 17
-23 48 -19 6 1 14 -3 18 -9 5 -8 11 -7 21 1 12 9 12 15 2 27 -10 13 -10 14 0
8 6 -4 12 -3 12 3 0 16 -21 24 -32 13 -8 -8 -7 -16 2 -27 11 -13 10 -14 -4 -9
-11 4 -16 14 -13 25 3 11 1 22 -4 25 -5 3 -9 -4 -9 -15 0 -11 -4 -23 -10 -26
-6 -4 -10 6 -10 22 0 19 -3 24 -9 15 -7 -11 -9 -11 -14 2 -8 21 -33 20 -47 -1
-9 -14 -10 -10 -5 22 4 33 3 37 -7 25 -17 -20 -34 -23 -58 -10 -15 8 -19 6
-23 -13 -4 -20 -4 -20 -6 -2 -1 16 -12 24 -43 32 -43 12 -63 9 -40 -6 10 -6
10 -11 -3 -21 -13 -11 -15 -9 -15 14 0 19 -5 26 -20 26 -14 0 -20 7 -20 23 -1
20 -2 21 -14 5 -18 -24 -24 -23 -28 5 -2 12 -6 17 -10 12z"/>
<path d="M1943 3033 c-16 -6 -17 -45 -1 -61 31 -31 79 9 57 49 -6 11 -13 18
-16 15 -3 -3 0 -13 7 -21 11 -13 11 -19 -3 -32 -8 -9 -23 -13 -31 -10 -21 8
-20 44 2 56 17 11 7 13 -15 4z"/>
<path d="M1332 2911 c-15 -9 -27 -57 -37 -147 -7 -65 6 -94 43 -94 9 0 102
-11 206 -25 132 -17 194 -21 207 -14 21 11 23 19 38 129 14 104 12 106 -159
125 -74 8 -164 20 -200 25 -79 12 -82 12 -98 1z m250 -44 c97 -12 180 -25 183
-29 9 -9 -13 -170 -25 -182 -11 -11 -411 39 -420 54 -4 7 9 130 19 178 2 6 80
-1 243 -21z"/>
<path d="M1445 2818 c-2 -7 -5 -27 -7 -45 -4 -29 -1 -33 24 -38 17 -4 35 -2
43 5 18 15 20 61 3 78 -16 16 -58 15 -63 0z m50 -39 c0 -15 -7 -25 -17 -27
-13 -3 -18 3 -18 21 0 13 3 27 7 31 13 12 28 -1 28 -25z"/>
<path d="M1536 2784 c-9 -25 -7 -64 4 -64 6 0 10 9 10 20 0 10 8 24 18 29 15
9 15 12 2 21 -21 14 -27 13 -34 -6z"/>
<path d="M1590 2787 c0 -1 4 -17 9 -35 8 -26 7 -34 -5 -39 -18 -7 -18 -23 1
-23 8 0 28 20 45 45 24 35 27 45 15 45 -9 0 -18 -7 -22 -17 -5 -14 -8 -13 -14
5 -5 12 -13 22 -19 22 -5 0 -10 -1 -10 -3z"/>
<path d="M990 2774 c-47 -8 -141 -24 -210 -35 -134 -21 -155 -32 -146 -79 3
-14 10 -58 16 -98 10 -59 16 -75 34 -83 26 -12 437 51 461 71 18 15 18 27 4
126 -12 76 -33 115 -61 113 -7 -1 -51 -8 -98 -15z m116 -26 c12 -18 34 -172
26 -180 -10 -10 -419 -71 -435 -65 -15 6 -45 172 -33 185 8 7 362 70 408 71
15 1 30 -4 34 -11z"/>
<path d="M977 2670 c-3 -11 -1 -20 4 -20 5 0 9 -11 9 -24 0 -29 17 -43 32 -28
8 8 6 16 -6 28 -13 13 -14 19 -5 25 9 5 9 11 -4 23 -20 21 -24 20 -30 -4z"/>
<path d="M869 2643 l-1 -38 -14 33 c-18 40 -34 41 -34 2 0 -35 -17 -41 -22 -8
-2 13 -11 24 -20 26 -16 3 -16 0 2 -40 24 -54 47 -62 52 -16 l4 33 13 -32 c18
-45 38 -32 43 28 2 34 -1 49 -9 49 -8 0 -13 -15 -14 -37z"/>
<path d="M910 2645 c-27 -33 19 -81 49 -49 15 15 14 16 -6 9 -14 -4 -23 -2
-23 4 0 6 9 11 21 11 15 0 19 4 15 16 -3 9 -6 18 -6 20 0 10 -39 2 -50 -11z"/>
<path d="M1495 2578 c-3 -18 -9 -82 -13 -143 l-7 -110 -23 38 c-13 20 -28 35
-33 31 -15 -9 -11 -19 27 -68 l36 -48 25 24 c43 40 67 78 55 90 -7 7 -19 -2
-37 -29 l-27 -38 6 85 c4 47 9 111 13 143 6 62 -11 83 -22 25z"/>
<path d="M960 2446 c0 -16 90 -156 112 -174 31 -25 30 8 0 42 -16 18 -43 59
-61 90 -31 54 -51 71 -51 42z"/>
<path d="M1871 2306 c-18 -19 -32 -39 -29 -46 4 -12 88 55 88 71 0 19 -27 8
-59 -25z"/>
<path d="M842 2207 c-17 -18 -22 -36 -22 -74 0 -55 20 -83 58 -83 12 0 22 -3
22 -6 0 -3 25 -209 56 -457 37 -308 60 -459 70 -475 32 -50 54 -52 474 -52
420 0 442 2 473 52 9 12 20 61 26 108 5 47 26 211 45 365 20 154 41 322 47
373 11 85 13 92 34 92 35 0 55 31 55 87 0 39 -5 54 -23 71 l-23 22 -635 0
-636 0 -21 -23z m1295 -12 c8 -3 13 -23 13 -54 0 -39 -4 -53 -19 -61 -13 -6
-231 -10 -639 -10 -523 0 -621 2 -631 14 -7 8 -11 36 -9 63 3 44 5 48 32 53
37 6 1236 2 1253 -5z m-63 -172 c-2 -16 -29 -221 -58 -458 -53 -423 -54 -429
-80 -452 l-27 -23 -414 0 -413 0 -26 31 c-14 17 -26 38 -26 47 0 25 -85 715
-104 850 l-5 32 579 0 580 0 -6 -27z"/>
<path d="M1476 1944 c-20 -19 -20 -29 -1 -48 8 -8 15 -32 15 -54 0 -37 -1 -39
-27 -34 -16 3 -43 16 -61 30 -30 23 -31 26 -17 42 21 23 19 47 -4 60 -25 13
-48 4 -56 -21 -7 -20 47 -99 66 -99 5 0 9 -5 9 -10 0 -7 -13 -9 -33 -5 -49 10
-81 -19 -81 -75 -1 -57 -20 -62 -58 -16 -23 28 -37 36 -57 34 -20 -2 -27 -9
-29 -30 -4 -33 30 -57 54 -37 11 9 18 9 32 -4 9 -8 26 -17 37 -19 13 -2 21
-12 23 -31 3 -25 1 -27 -35 -27 -22 0 -44 5 -50 11 -6 6 -21 9 -34 7 -33 -4
-39 -52 -9 -68 18 -10 26 -8 45 10 15 14 33 20 51 18 25 -2 29 -8 32 -35 3
-29 0 -33 -20 -33 -13 0 -30 -6 -37 -12 -6 -7 -29 -13 -49 -13 -34 0 -37 -2
-37 -30 0 -47 38 -47 79 1 35 41 69 43 59 5 -13 -50 38 -104 92 -98 14 1 21
-5 23 -21 3 -18 -4 -26 -32 -37 -41 -17 -49 -28 -41 -55 14 -45 81 -30 72 17
-2 13 2 28 9 34 8 6 14 24 14 40 0 26 3 28 35 27 34 -1 35 -2 35 -45 0 -23 -4
-43 -9 -43 -26 0 -21 -54 5 -64 40 -15 71 37 38 64 -10 9 -14 26 -12 49 3 32
6 36 36 37 29 2 32 -1 32 -27 0 -17 6 -32 15 -35 10 -4 12 -15 8 -35 -4 -24
-1 -30 21 -40 53 -25 78 43 25 68 -62 30 -64 71 -3 71 49 0 76 31 72 81 -4 50
22 53 59 7 31 -40 66 -47 82 -17 16 30 -9 56 -47 48 -20 -4 -34 -1 -42 8 -7 8
-22 15 -34 15 -19 0 -21 4 -18 35 4 31 8 35 33 35 15 0 31 -4 34 -10 3 -5 15
-15 25 -20 28 -15 65 22 50 50 -11 21 -60 29 -60 10 0 -5 -20 -10 -44 -10 -43
0 -45 1 -43 27 2 19 9 29 22 31 11 2 28 11 37 19 13 11 21 12 37 4 29 -16 67
20 51 49 -16 31 -49 24 -85 -17 -40 -46 -67 -42 -58 11 7 47 -30 86 -82 86
-19 0 -35 5 -35 11 0 22 21 49 39 49 43 0 52 62 10 73 -24 7 -52 -20 -46 -44
3 -10 -1 -23 -9 -30 -8 -6 -14 -23 -14 -38 0 -23 -4 -26 -32 -25 -30 1 -33 4
-36 36 -2 22 3 39 12 48 19 15 21 41 4 58 -16 16 -33 15 -52 -4z m40 -15 c10
-17 -13 -36 -27 -22 -12 12 -4 33 11 33 5 0 12 -5 16 -11z m162 -161 c17 -17
17 -349 0 -366 -17 -17 -339 -17 -356 0 -8 8 -12 63 -12 183 0 120 4 175 12
183 8 8 62 12 178 12 116 0 170 -4 178 -12z m-302 -499 c10 -17 -13 -36 -27
-22 -12 12 -4 33 11 33 5 0 12 -5 16 -11z m280 0 c10 -17 -13 -36 -27 -22 -12
12 -4 33 11 33 5 0 12 -5 16 -11z m-140 -10 c10 -17 -13 -36 -27 -22 -12 12
-4 33 11 33 5 0 12 -5 16 -11z"/>
<path d="M1490 1715 c0 -3 7 -17 16 -30 9 -14 13 -33 9 -45 -6 -18 -2 -20 29
-20 29 0 38 5 51 30 14 26 14 30 1 30 -9 0 -20 9 -26 20 -8 14 -21 20 -45 20
-19 0 -35 -2 -35 -5z"/>
<path d="M1431 1681 l-20 -28 27 -12 c23 -11 29 -10 45 10 16 20 16 23 1 40
-23 25 -29 24 -53 -10z"/>
<path d="M1369 1606 c9 -11 10 -20 1 -35 -8 -16 -7 -28 6 -53 l17 -32 19 37
c10 20 25 37 33 37 19 0 19 10 -1 38 -11 16 -25 22 -51 22 -30 0 -34 -2 -24
-14z"/>
<path d="M1583 1606 c-27 -13 -28 -19 -8 -50 15 -23 48 -26 61 -5 4 7 -23 71
-29 68 -1 -1 -12 -6 -24 -13z"/>
<path d="M1527 1530 c-21 -31 -21 -39 3 -70 16 -20 20 -22 20 -7 0 11 8 17 24
17 22 0 56 31 56 51 0 4 -18 5 -39 2 -33 -5 -40 -2 -43 13 -3 17 -5 16 -21 -6z"/>
<path d="M1422 1518 c-7 -7 -12 -20 -12 -30 0 -14 8 -18 40 -18 38 0 40 2 40
30 0 26 -4 30 -28 30 -15 0 -33 -5 -40 -12z"/>
<path d="M2156 1086 c19 -15 19 -15 -1 -30 -20 -16 -20 -16 0 -9 39 12 49 26
29 40 -10 7 -25 13 -33 13 -11 0 -10 -4 5 -14z"/>
<path d="M1840 740 c0 -47 4 -80 10 -80 6 0 10 15 10 34 0 39 20 62 38 44 7
-7 12 -27 12 -45 0 -18 5 -33 10 -33 6 0 10 20 10 44 0 49 -18 71 -50 61 -17
-5 -20 -2 -20 24 0 17 -4 31 -10 31 -6 0 -10 -33 -10 -80z"/>
<path d="M556 789 c-19 -28 -11 -47 30 -64 19 -8 34 -19 34 -25 0 -19 -30 -23
-49 -6 -22 20 -31 20 -31 1 0 -21 43 -39 74 -31 21 5 26 13 26 36 0 25 -6 32
-35 44 -19 8 -35 19 -35 25 0 17 24 18 48 3 19 -13 22 -13 22 1 0 17 -29 37
-54 37 -8 0 -22 -10 -30 -21z"/>
<path d="M1089 803 c0 -5 -1 -37 -1 -73 l0 -65 46 -3 c36 -2 46 0 46 12 0 12
-10 16 -35 16 l-35 0 0 60 c0 33 -4 60 -10 60 -5 0 -10 -3 -11 -7z"/>
<path d="M1715 785 c-14 -13 -25 -36 -25 -50 0 -30 41 -75 67 -75 22 0 63 27
63 41 0 5 -7 9 -15 9 -8 0 -15 -5 -15 -11 0 -6 -14 -9 -32 -7 -31 3 -33 5 -33
43 0 37 2 40 29 43 19 2 32 -2 38 -12 10 -18 28 -22 28 -6 0 18 -39 50 -60 50
-12 0 -32 -11 -45 -25z"/>
<path d="M678 759 c-21 -12 -24 -69 -6 -87 17 -17 53 -15 68 3 17 20 5 32 -15
15 -19 -16 -45 -6 -45 18 0 28 20 43 42 31 27 -14 38 -1 14 17 -23 16 -35 17
-58 3z"/>
<path d="M780 755 c-16 -20 -5 -32 14 -16 8 7 20 10 26 6 18 -11 11 -24 -17
-27 -22 -2 -28 -8 -28 -28 0 -22 5 -25 38 -27 l37 -1 0 42 c0 60 -39 89 -70
51z"/>
<path d="M879 764 c-5 -32 1 -99 10 -102 7 -2 11 11 11 37 0 34 3 41 20 41 17
0 20 -7 20 -40 0 -29 4 -40 15 -40 18 0 21 85 4 96 -13 8 -79 15 -80 8z"/>
<path d="M1208 759 c-21 -12 -24 -69 -6 -87 17 -17 53 -15 68 3 17 20 5 32
-15 15 -8 -7 -22 -10 -30 -6 -28 10 -15 25 25 28 39 3 39 4 27 28 -14 27 -42
36 -69 19z m49 -24 c1 -5 -8 -11 -22 -11 -25 -2 -32 6 -18 20 9 9 36 3 40 -9z"/>
<path d="M1314 756 c-25 -19 -9 -34 18 -17 14 9 24 9 31 2 11 -11 1 -17 -38
-23 -14 -2 -20 -11 -20 -28 0 -23 4 -25 43 -26 l42 -1 0 38 c0 59 -35 84 -76
55z m56 -55 c0 -15 -19 -23 -38 -16 -14 5 -14 7 -2 15 19 12 40 13 40 1z"/>
<path d="M1410 713 c0 -42 3 -53 16 -53 12 0 15 7 11 27 -6 33 1 53 19 53 8 0
14 6 14 13 0 8 -12 14 -30 14 -30 0 -30 -1 -30 -54z"/>
<path d="M1490 713 c0 -29 5 -53 10 -53 6 0 10 18 10 39 0 24 5 41 14 44 21 8
38 -17 34 -49 -2 -15 3 -29 10 -31 8 -3 12 9 12 40 0 51 -12 64 -57 64 l-33 0
0 -54z"/>
<path d="M1964 753 c-19 -19 -2 -32 19 -15 8 7 18 7 27 2 16 -10 7 -15 -35
-22 -14 -2 -20 -11 -20 -28 0 -23 4 -25 43 -26 l42 -1 0 38 c0 60 -40 87 -76
52z m50 -58 c-4 -8 -15 -15 -25 -15 -21 0 -26 16 -6 23 24 10 36 7 31 -8z"/>
<path d="M2060 713 c0 -38 4 -53 12 -51 7 3 12 20 12 39 1 27 5 35 24 37 20 3
22 -1 22 -37 0 -23 5 -41 10 -41 15 0 12 86 -2 97 -7 6 -28 10 -45 10 l-33 0
0 -54z"/>
<path d="M2186 754 c-36 -35 -9 -91 39 -82 29 6 32 -3 9 -23 -13 -10 -19 -10
-36 0 -24 15 -35 7 -18 -14 14 -17 43 -19 71 -5 16 9 19 22 19 75 0 37 -4 65
-10 65 -5 0 -10 -5 -10 -12 0 -9 -3 -9 -12 0 -16 16 -33 15 -52 -4z m58 -23
c10 -16 -5 -41 -24 -41 -23 0 -34 16 -26 35 6 16 42 20 50 6z"/>
<path d="M2306 757 c-12 -9 -17 -23 -14 -47 2 -27 9 -37 31 -44 21 -8 31 -6
44 7 20 20 10 35 -12 17 -16 -13 -45 -7 -45 10 0 5 16 10 35 10 27 0 35 4 35
18 0 38 -40 54 -74 29z"/>
<path d="M1427 422 c-61 -42 -78 -99 -49 -166 33 -73 116 -100 190 -62 71 37
84 149 24 209 -40 39 -121 49 -165 19z m111 -16 c59 -31 81 -84 58 -140 -15
-36 -59 -66 -96 -66 -53 0 -110 57 -110 110 0 36 30 81 63 95 41 18 52 18 85
1z"/>
</g>
</svg>
